# xmcd
#
# Track frame offsets: 
#        150
#        11634
#        26673
#        42015
#        65756
#        80597
#        133894
#        146801
#        161245
#        175500
#        189735
#        202025
#        215128
#        232900
#        246827
#        258168
#        272869
#        291586
#        307239
#        321066
#
# Disc length: 4453 seconds
#
# Revision: 2
# Processed by: cddbd v1.5.2PL0 Copyright (c) Steve Scherf et al.
# Submitted via: ExactAudioCopy v1.0b4
#
DISCID=3d116314
DTITLE=Woody Herman - The Ultimate Jazz Archive Set 37, Menu 2 Woody H
DTITLE=erman
DYEAR=1945
DGENRE=Jazz
TTITLE0=Woody Herman And His Orchestra - The Good Earth
TTITLE1=Laura (Vocals By Woody Herman)
TTITLE2=Your Father's Moustache
TTITLE3=Lady McGowan's Dream (Parts I and II)
TTITLE4=Apple Honey 
TTITLE5=Summer Sequence (Parts I - IV)
TTITLE6=Not Really The Blues
TTITLE7=More Moon
TTITLE8=Rhapsody In Wood
TTITLE9=Woody Herman And His Orchestra - Here Come The Blues (Vocals B
TTITLE9=y Woody Herman)
TTITLE10=Woody Herman And His Orchestra - Life Is Just A Bowl Of Cherr
TTITLE10=ies (Vocals By Woody Herman)
TTITLE11=Cohn's Alley
TTITLE12=Mulligantawny
TTITLE13=Why Not?
TTITLE14=Would He?
TTITLE15=Off Shore
TTITLE16=Hitting The Bottle
TTITLE17=It Happens To Me
TTITLE18=Strange
TTITLE19=Moten Stomp
EXTD=YEAR: 2005
EXTT0=
EXTT1=
EXTT2=
EXTT3=
EXTT4=
EXTT5=
EXTT6=
EXTT7=
EXTT8=
EXTT9=
EXTT10=
EXTT11=
EXTT12=
EXTT13=
EXTT14=
EXTT15=
EXTT16=
EXTT17=
EXTT18=
EXTT19=
PLAYORDER=
